# xmcd CD database file
#
# Track frame offsets:
#        150
#        17808
#        44252
#        64176
#        87412
#        114404
#        136943
#        154678
#        174718
#        191096
#        205750
#
# Disc length: 2925 seconds
#
# Revision: 0
# Processed by: cddbd v1.5.2PL0 Copyright (c) Steve Scherf et al.
# Submitted via: CUERipper 2.1.4
#
DISCID=940b6b0b
DTITLE=Christophe Maé - Mon paradis - Les bonus audio
DYEAR=2007
DGENRE=
TTITLE0=Mon paradis (live iTunes)
TTITLE1=On s'attache (live iTunes)
TTITLE2=Parce qu'on sait jamais (live iTunes)
TTITLE3=Va voir ailleurs (live iTunes)
TTITLE4=Spleen (live iTunes)
TTITLE5=Ça fait mal (live iTunes)
TTITLE6=On s'attache (Face à face live, RFM)
TTITLE7=Ça fait mal (Face à face live, RFM)
TTITLE8=Belle demoiselle (studio acoustique rare)
TTITLE9=Va voir ailleurs (studio acoustique rare)
TTITLE10=On s'attache (studio acoustique rare)
EXTD=
EXTT0=
EXTT1=
EXTT2=
EXTT3=
EXTT4=
EXTT5=
EXTT6=
EXTT7=
EXTT8=
EXTT9=
EXTT10=
PLAYORDER=
